<svg width="1825" height="1476" viewBox="0 0 1825 1476" fill="none" xmlns="http://www.w3.org/2000/svg">
<path d="M981.561 1191.63L1166.67 1265.97L1395.81 695.41L1239.34 632.57C1223.52 626.22 1205.55 633.89 1199.2 649.71L981.561 1191.63Z" fill="#3797DB"/>
<path d="M959.869 1170.37L1314.29 1233.22L1402.65 734.914L1048.23 672.065L959.869 1170.37Z" fill="#D1EAF2"/>
<path d="M1137.11 742.473L1295.38 770.538L1296.01 766.984L1137.74 738.918L1137.11 742.473Z" fill="#55769F"/>
<path d="M1105.45 727.567L1330.22 767.424L1330.85 763.87L1106.08 724.012L1105.45 727.567Z" fill="#55769F"/>
<path d="M1073.28 769.642L1345.97 817.999L1346.6 814.445L1073.91 766.087L1073.28 769.642Z" fill="#55769F"/>
<path d="M1070.25 786.73L1342.95 835.088L1343.58 831.533L1070.88 783.176L1070.25 786.73Z" fill="#55769F"/>
<path d="M1064.19 820.916L1336.89 869.273L1337.52 865.719L1064.82 817.361L1064.19 820.916Z" fill="#55769F"/>
<path d="M1061.16 838.009L1333.86 886.367L1334.49 882.812L1061.79 834.455L1061.16 838.009Z" fill="#55769F"/>
<path d="M1058.13 855.1L1330.83 903.457L1331.46 899.902L1058.76 851.545L1058.13 855.1Z" fill="#55769F"/>
<path d="M1044.81 930.275L1317.51 978.632L1318.14 975.077L1045.44 926.72L1044.81 930.275Z" fill="#55769F"/>
<path d="M1041.67 947.998L1314.37 996.356L1315 992.801L1042.3 944.444L1041.67 947.998Z" fill="#55769F"/>
<path d="M1038.54 965.716L1311.23 1014.07L1311.86 1010.52L1039.17 962.161L1038.54 965.716Z" fill="#55769F"/>
<path d="M1035.39 983.444L1308.08 1031.8L1308.71 1028.25L1036.02 979.89L1035.39 983.444Z" fill="#55769F"/>
<path d="M1032.26 1001.16L1304.95 1049.52L1305.58 1045.96L1032.89 997.604L1032.26 1001.16Z" fill="#55769F"/>
<path d="M1029.11 1018.89L1301.8 1067.25L1302.43 1063.69L1029.74 1015.34L1029.11 1018.89Z" fill="#55769F"/>
<path d="M1025.97 1036.61L1298.66 1084.97L1299.29 1081.41L1026.6 1033.06L1025.97 1036.61Z" fill="#55769F"/>
<path d="M970.35 1149.05L1318.47 1240.66L1447.27 751.208L1099.15 659.598L970.35 1149.05Z" fill="#E1F9FF"/>
<path d="M1182 737.081L1337.45 777.99L1338.37 774.499L1182.91 733.59L1182 737.081Z" fill="#7772D6"/>
<path d="M1151.66 719.633L1372.43 777.73L1373.35 774.239L1152.58 716.141L1151.66 719.633Z" fill="#7772D6"/>
<path d="M1116.15 758.931L1384 829.417L1384.92 825.926L1117.07 755.44L1116.15 758.931Z" fill="#7772D6"/>
<path d="M1111.74 775.713L1379.59 846.199L1380.5 842.708L1112.66 772.221L1111.74 775.713Z" fill="#7772D6"/>
<path d="M1102.9 809.281L1370.74 879.768L1371.66 876.276L1103.81 805.79L1102.9 809.281Z" fill="#7772D6"/>
<path d="M1098.48 826.069L1366.33 896.555L1367.25 893.064L1099.4 822.577L1098.48 826.069Z" fill="#7772D6"/>
<path d="M1094.07 842.849L1361.92 913.335L1362.84 909.844L1094.99 839.358L1094.07 842.849Z" fill="#7772D6"/>
<path d="M1074.64 916.686L1342.48 987.172L1343.4 983.681L1075.56 913.194L1074.64 916.686Z" fill="#7772D6"/>
<path d="M1070.06 934.084L1337.9 1004.57L1338.82 1001.08L1070.98 930.593L1070.06 934.084Z" fill="#7772D6"/>
<path d="M1065.48 951.492L1333.33 1021.98L1334.24 1018.49L1066.4 948.001L1065.48 951.492Z" fill="#7772D6"/>
<path d="M1060.89 968.896L1328.74 1039.38L1329.66 1035.89L1061.81 965.405L1060.89 968.896Z" fill="#55769F"/>
<path d="M1056.32 986.293L1324.16 1056.78L1325.08 1053.29L1057.23 982.802L1056.32 986.293Z" fill="#55769F"/>
<path d="M1051.72 1003.71L1319.57 1074.2L1320.49 1070.71L1052.64 1000.22L1051.72 1003.71Z" fill="#55769F"/>
<path d="M1047.15 1021.11L1315 1091.59L1315.92 1088.1L1048.07 1017.62L1047.15 1021.11Z" fill="#55769F"/>
<path d="M1051.8 1219.83L1424.47 1369.5L1641.83 828.28L1328.66 635.1C1311.06 624.24 1287.92 631.86 1280.22 651.05L1051.8 1219.83Z" fill="#62BDF3"/>
<path d="M1500.33 1163.04L1567.85 1143.26C1579.74 1094.12 1586.87 1052.27 1586.87 1052.27C1505.4 1055.56 1442.7 1080.49 1394.48 1115.93L1384.5 1196.18L1362.96 1142.37C1249.11 1250.94 1235.79 1418.55 1235.79 1418.55C1235.79 1418.55 1464.94 1328.89 1508.61 1291.94C1525.47 1277.67 1540.98 1238.69 1553.66 1196.21C1530.88 1183.94 1500.33 1163.04 1500.33 1163.04Z" fill="#9ED16F"/>
<path d="M1586.88 1052.27C1586.88 1052.27 1318.72 1262.62 1235.8 1418.56C1235.8 1418.56 1464.95 1328.9 1508.62 1291.95C1525.48 1277.68 1540.99 1238.7 1553.67 1196.22C1530.87 1183.94 1500.32 1163.04 1500.32 1163.04L1567.84 1143.26C1579.74 1094.12 1586.88 1052.27 1586.88 1052.27Z" fill="#96A65F"/>
<path d="M1632.92 1258.72C1585.32 1245.03 1540.53 1242.98 1499.24 1248.57C1491.53 1266.28 1481.87 1287.27 1481.87 1287.27L1471.05 1253.65C1316.3 1288.47 1217.65 1425.5 1217.65 1425.5C1321.43 1457.1 1401.14 1451.84 1461.64 1429.94C1462.05 1417.03 1462.38 1397.85 1462.38 1397.85L1480.78 1422.2C1509.17 1409.46 1532.8 1393.06 1552.31 1375.58C1542.64 1362.98 1532.12 1348.43 1532.12 1348.43L1570.18 1358.14C1616.16 1309.31 1632.92 1258.72 1632.92 1258.72Z" fill="#7772D6"/>
<path d="M1461.65 1429.95C1462.06 1417.04 1462.39 1397.86 1462.39 1397.86L1480.79 1422.21C1509.18 1409.47 1532.81 1393.07 1552.32 1375.59C1542.65 1362.99 1532.13 1348.44 1532.13 1348.44L1570.19 1358.15C1616.17 1309.31 1632.93 1258.73 1632.93 1258.73C1449.22 1286.84 1217.67 1425.51 1217.67 1425.51C1321.43 1457.1 1401.15 1451.84 1461.65 1429.95Z" fill="#45258F"/>
<path d="M462.15 848.27H436.67C440.84 845.42 446.05 843.71 451.73 843.71H1090.16C1123.56 843.71 1150.64 867.71 1150.64 897.32V931.37C1150.64 960.98 1123.56 984.98 1090.16 984.98L458.87 984.79L462.15 848.27Z" fill="#7772D6"/>
<path d="M1097.08 931.37V897.32C1097.08 867.71 1070 843.71 1036.6 843.71H1050.31C1083.71 843.71 1110.79 867.71 1110.79 897.32V931.37C1110.79 960.98 1083.71 984.98 1050.31 984.98H1036.78C1070.09 984.89 1097.08 960.93 1097.08 931.37Z" fill="#D1EAF2"/>
<path d="M947.55 931.37V897.32C947.55 867.71 920.47 843.71 887.07 843.71H900.78C934.18 843.71 961.26 867.71 961.26 897.32V931.37C961.26 960.98 934.18 984.98 900.78 984.98H887.25C920.57 984.89 947.55 960.93 947.55 931.37Z" fill="#D1EAF2"/>
<path d="M824.59 843.84C856.53 843.84 882.43 866.79 882.43 895.11V933.59C882.43 961.91 856.54 984.86 824.59 984.86H427.16V976.25H428.8L529.84 967.77L550.26 896.75C550.26 896.75 510.84 857.51 508.27 856.49C505.7 855.48 428.8 852.41 428.8 852.41L427.16 852.4V843.84H824.59Z" fill="#45258F"/>
<path d="M452.931 914.09C452.931 872.57 428.721 852.44 428.721 852.44H816.451C845.791 852.44 869.571 873.52 869.571 899.53V929.15C869.571 955.16 845.781 976.24 816.451 976.24H428.731C428.731 976.25 452.931 966.38 452.931 914.09Z" fill="#D1EAF2"/>
<path d="M869.58 899.54V929.16C869.58 933.06 869.04 936.83 868.03 940.45C854.95 912.09 829.89 884.77 782.18 875.99C670.79 855.48 428.73 852.44 428.73 852.44H816.46C845.79 852.44 869.58 873.53 869.58 899.54Z" fill="#DAEEF7"/>
<path d="M472.66 1130.65H443.82C448.54 1127.08 454.44 1124.94 460.86 1124.94H1183.44C1221.25 1124.94 1251.89 1154.98 1251.89 1192.05V1234.67C1251.89 1271.73 1221.24 1301.78 1183.44 1301.78L468.95 1301.54L472.66 1130.65Z" fill="#45258F"/>
<path d="M882.881 1125.1C919.031 1125.1 948.341 1153.83 948.341 1189.27V1237.44C948.341 1272.88 919.031 1301.61 882.881 1301.61H433.061V1290.83H434.921L549.281 1280.21L572.391 1191.32C572.391 1191.32 527.781 1142.2 524.871 1140.93C521.961 1139.66 434.921 1135.82 434.921 1135.82L433.061 1135.8V1125.08H882.881V1125.1Z" fill="#2D185D"/>
<path d="M462.23 1213.04C462.23 1161.07 434.83 1135.87 434.83 1135.87H873.66C906.87 1135.87 933.79 1162.26 933.79 1194.82V1231.9C933.79 1264.45 906.87 1290.84 873.66 1290.84H434.84C434.84 1290.84 462.23 1278.48 462.23 1213.04Z" fill="#D1EAF2"/>
<path d="M933.79 1194.82V1231.9C933.79 1236.77 933.17 1241.51 932.04 1246.04C917.24 1210.54 888.87 1176.35 834.87 1165.35C708.8 1139.68 434.83 1135.88 434.83 1135.88H873.66C906.87 1135.87 933.79 1162.27 933.79 1194.82Z" fill="#DAEEF7"/>
<path d="M1275.7 989.15H1304.55C1299.83 986.32 1293.92 984.62 1287.5 984.62H564.65C526.83 984.62 496.17 1008.46 496.17 1037.87V1071.69C496.17 1101.1 526.83 1124.94 564.65 1124.94L1279.42 1124.75L1275.7 989.15Z" fill="#9ED16F"/>
<path d="M865.32 984.75C829.15 984.75 799.83 1007.55 799.83 1035.67V1073.89C799.83 1102.01 829.15 1124.81 865.32 1124.81H1315.32V1116.26H1313.46L1199.06 1107.84L1175.94 1037.3C1175.94 1037.3 1220.57 998.32 1223.48 997.32C1226.39 996.31 1313.47 993.26 1313.47 993.26L1315.33 993.24V984.74H865.32V984.75Z" fill="#96A65F"/>
<path d="M1286.13 1054.53C1286.13 1013.29 1313.54 993.3 1313.54 993.3H874.541C841.321 993.3 814.391 1014.24 814.391 1040.07V1069.49C814.391 1095.32 841.321 1116.26 874.541 1116.26H1313.54C1313.54 1116.27 1286.13 1106.46 1286.13 1054.53Z" fill="#D1EAF2"/>
<path d="M814.381 1040.07V1069.49C814.381 1073.36 815.001 1077.11 816.131 1080.71C830.941 1052.54 859.311 1025.41 913.331 1016.68C1039.45 996.31 1313.53 993.29 1313.53 993.29H874.531C841.311 993.3 814.381 1014.24 814.381 1040.07Z" fill="#DAEEF7"/>
<path opacity="0.5" d="M628.589 1071.69V1037.87C628.589 1008.46 659.249 984.62 697.069 984.62H628.429C590.609 984.62 559.949 1008.46 559.949 1037.87V1071.69C559.949 1101.1 590.609 1124.94 628.429 1124.94L696.159 1124.92C658.759 1124.54 628.589 1100.86 628.589 1071.69Z" fill="#96A65F"/>
<path d="M1323.32 1307.2H1359.49C1353.57 1304.04 1346.17 1302.14 1338.11 1302.14H431.889C384.479 1302.14 346.039 1328.78 346.039 1361.63V1399.42C346.039 1432.28 384.479 1458.91 431.889 1458.91L1327.98 1458.7L1323.32 1307.2Z" fill="#3797DB"/>
<path d="M808.831 1302.28C763.491 1302.28 726.73 1327.75 726.73 1359.17V1401.88C726.73 1433.3 763.491 1458.77 808.831 1458.77H1372.98V1449.22H1370.65L1227.23 1439.81L1198.24 1361C1198.24 1361 1254.19 1317.45 1257.84 1316.33C1261.49 1315.21 1370.65 1311.8 1370.65 1311.8L1372.98 1311.78V1302.28H808.831V1302.28Z" fill="#3B77BE"/>
<path d="M1336.39 1380.24C1336.39 1334.16 1370.75 1311.83 1370.75 1311.83H820.391C778.741 1311.83 744.98 1335.23 744.98 1364.09V1396.96C744.98 1425.82 778.741 1449.22 820.391 1449.22H1370.76C1370.75 1449.22 1336.39 1438.26 1336.39 1380.24Z" fill="#D1EAF2"/>
<path d="M744.98 1364.09V1396.96C744.98 1401.28 745.75 1405.48 747.18 1409.49C765.74 1378.02 801.32 1347.7 869.04 1337.95C1027.16 1315.19 1370.75 1311.82 1370.75 1311.82H820.391C778.741 1311.83 744.98 1335.23 744.98 1364.09Z" fill="#DAEEF7"/>
<path d="M246.46 1475.13H1560.7C1564.58 1475.13 1567.73 1471.98 1567.73 1468.1V1464.86C1567.73 1460.98 1564.58 1457.83 1560.7 1457.83H246.46C242.58 1457.83 239.43 1460.98 239.43 1464.86V1468.1C239.42 1471.98 242.57 1475.13 246.46 1475.13Z" fill="#62BDF3"/>
<path d="M1575.79 888.04L1322.07 742.92L1287.78 810.85L1547.39 948.19L1575.79 888.04Z" fill="#3797DB"/>
<path d="M1532.71 218.81C1532.71 218.81 1534.71 238.54 1550.28 239.91C1534.71 241.28 1532.71 261.01 1532.71 261.01C1532.71 261.01 1530.71 241.28 1515.14 239.91C1530.71 238.54 1532.71 218.81 1532.71 218.81Z" fill="#7772D6"/>
<path d="M1641.82 938.76C1641.82 938.76 1644.82 968.36 1668.18 970.41C1644.82 972.46 1641.82 1002.06 1641.82 1002.06C1641.82 1002.06 1638.82 972.46 1615.46 970.41C1638.82 968.36 1641.82 938.76 1641.82 938.76Z" fill="#FF5B7E"/>
<path d="M1801.46 384.09C1801.46 384.09 1804.13 410.37 1824.87 412.19C1804.13 414.01 1801.46 440.29 1801.46 440.29C1801.46 440.29 1798.79 414.01 1778.05 412.19C1798.79 410.38 1801.46 384.09 1801.46 384.09Z" fill="#9ED16F"/>
<path d="M333.98 1055.3C333.98 1055.3 335.77 1072.99 349.73 1074.21C335.77 1075.43 333.98 1093.12 333.98 1093.12C333.98 1093.12 332.19 1075.43 318.23 1074.21C332.18 1072.99 333.98 1055.3 333.98 1055.3Z" fill="#9ED16F"/>
<path d="M1475.37 558.16C1475.37 558.16 1477.16 575.81 1491.09 577.03C1477.16 578.25 1475.37 595.9 1475.37 595.9C1475.37 595.9 1473.58 578.25 1459.65 577.03C1473.58 575.81 1475.37 558.16 1475.37 558.16Z" fill="#3797DB"/>
<path d="M1232.91 94.91C1232.91 94.91 1234.7 112.56 1248.63 113.78C1234.7 115 1232.91 132.65 1232.91 132.65C1232.91 132.65 1231.12 115 1217.19 113.78C1231.12 112.56 1232.91 94.91 1232.91 94.91Z" fill="#3797DB"/>
<path d="M379.381 387.5C379.381 387.5 381.721 410.59 399.951 412.19C381.721 413.79 379.381 436.88 379.381 436.88C379.381 436.88 377.041 413.78 358.811 412.19C377.041 410.6 379.381 387.5 379.381 387.5Z" fill="#3797DB"/>
<path d="M270.999 745.81C270.999 745.81 274.429 779.65 301.129 781.99C274.429 784.33 270.999 818.17 270.999 818.17C270.999 818.17 267.569 784.33 240.869 781.99C267.569 779.65 270.999 745.81 270.999 745.81Z" fill="#3797DB"/>
<path d="M1175.1 355.99C1175.1 355.99 1177.77 382.27 1198.51 384.09C1177.77 385.91 1175.1 412.19 1175.1 412.19C1175.1 412.19 1172.43 385.91 1151.69 384.09C1172.43 382.27 1175.1 355.99 1175.1 355.99Z" fill="#3797DB"/>
<path d="M1778.05 725.79C1778.05 725.79 1780.72 752.07 1801.46 753.89C1780.72 755.71 1778.05 781.99 1778.05 781.99C1778.05 781.99 1775.38 755.71 1754.64 753.89C1775.38 752.07 1778.05 725.79 1778.05 725.79Z" fill="#7772D6"/>
<path d="M649.151 274.2C649.151 274.2 651.05 292.92 665.82 294.22C651.04 295.52 649.151 314.24 649.151 314.24C649.151 314.24 647.25 295.52 632.48 294.22C647.25 292.92 649.151 274.2 649.151 274.2Z" fill="#7772D6"/>
<path d="M559.95 619.44C559.95 619.44 562.99 649.43 586.65 651.5C562.99 653.58 559.95 683.56 559.95 683.56C559.95 683.56 556.91 653.57 533.25 651.5C556.91 649.43 559.95 619.44 559.95 619.44Z" fill="#7772D6"/>
<path d="M18.23 507.6C18.23 507.6 20.31 531.39 36.47 533.03C20.31 534.68 18.23 558.46 18.23 558.46C18.23 558.46 16.16 534.68 0 533.04C16.16 531.39 18.23 507.6 18.23 507.6Z" fill="#9ED16F"/>
<path d="M684.31 43.89C684.31 43.89 686.389 67.75 702.599 69.4C686.389 71.05 684.31 94.91 684.31 94.91C684.31 94.91 682.23 71.05 666.02 69.4C682.23 67.75 684.31 43.89 684.31 43.89Z" fill="#9ED16F"/>
<path d="M940.63 522.71L981.57 526L968.36 559.12L947.701 557.46L939.1 585.07C937 584.11 935.461 583.39 935.151 583.18C934.521 582.76 932.24 569.06 930.23 556.13L940.63 522.71Z" fill="#DAEEF7"/>
<path d="M963.99 827.24V841.67C963.99 842.86 964.95 843.83 966.14 843.83H999.83C1002.27 843.83 1003.2 840.64 1001.14 839.32L982.24 827.24C982.25 827.24 974.83 832.68 963.99 827.24Z" fill="#45258F"/>
<path d="M897.851 215.53C897.361 215.72 896.841 215.29 896.951 214.78C897.791 210.77 900.371 198.15 899.401 197.7C898.251 197.17 895.671 208.4 894.501 208.53C893.331 208.67 896.121 197.78 894.791 197.41C893.461 197.04 891.251 207.05 890.641 207.09C890.031 207.13 891.121 197.31 890.471 196.63C889.821 195.95 887.381 206.29 886.651 206.54C885.921 206.8 885.231 199.1 884.561 199.09C883.891 199.07 883.451 198.95 880.041 216.72C880.041 216.72 879.841 223.23 878.691 224.76L881.251 229.99L889.201 230.25C889.201 230.25 906.471 214.63 906.331 213.67C906.191 212.78 905.431 212.56 897.851 215.53Z" fill="#EFAC7F"/>
<path d="M979.671 219.47C980.021 219.87 980.671 219.72 980.811 219.21C981.891 215.26 985.351 202.84 986.421 202.89C987.691 202.94 984.871 214.11 985.851 214.77C986.831 215.43 989.311 204.46 990.661 204.74C992.011 205.02 989.411 214.94 989.941 215.25C990.471 215.56 993.971 206.33 994.861 206.01C995.751 205.7 993.211 216.01 993.741 216.58C994.271 217.14 998.391 210.61 998.991 210.9C999.591 211.19 1000.04 211.28 994.981 228.65C994.981 228.65 992.191 234.54 992.521 236.42L987.851 239.91L980.651 236.52C980.651 236.52 972.401 214.74 972.961 213.96C973.501 213.21 974.271 213.37 979.671 219.47Z" fill="#EFAC7F"/>
<path d="M916.501 361.76L916.621 392.14L887.111 387.6L892.031 353.43L916.501 361.76Z" fill="#EFAC7F"/>
<path opacity="0.6" d="M889.771 369.16L892.041 353.43L916.531 364.64L916.541 370.64C910.641 372.08 899.591 373.37 889.771 369.16Z" fill="#D19369"/>
<path d="M863.171 825.64V841.47C863.171 842.78 862.111 843.84 860.801 843.84H823.741C821.061 843.84 820.041 840.34 822.301 838.9L843.091 825.65C843.091 825.64 851.251 831.6 863.171 825.64Z" fill="#45258F"/>
<path d="M829.32 556.72C829.39 553.33 820.58 563.32 820.75 560.61C824.21 504.4 934.031 551.53 934.031 551.53L960.84 571.2L991.1 831.69C991.1 831.69 974.67 836.45 963.86 832.56L896.84 609.34L888.6 606.17C888.6 606.17 851.95 580.6 829.32 556.72Z" fill="#45258F"/>
<path d="M820.631 562.9C820.601 563.56 820.571 564.23 820.541 564.92C820.571 564.23 820.601 563.56 820.631 562.9Z" fill="#06BFAD"/>
<path d="M820.541 564.96C820.511 565.66 820.491 566.39 820.461 567.13C820.491 566.39 820.511 565.66 820.541 564.96Z" fill="#06BFAD"/>
<path d="M820.451 567.41C820.431 568.18 820.411 568.96 820.391 569.76C820.411 568.96 820.431 568.18 820.451 567.41Z" fill="#06BFAD"/>
<path d="M820.75 560.61C820.71 561.22 820.68 561.85 820.65 562.49C820.68 561.85 820.72 561.22 820.75 560.61Z" fill="#06BFAD"/>
<path d="M820.771 547.84C843.401 571.72 888.611 606.17 888.611 606.17L896.851 609.34L888.611 606.17L863.131 831.7C863.131 831.7 844.971 835.16 834.591 829.54C834.591 829.53 819.291 614.86 820.771 547.84Z" fill="#2D185D"/>
<path d="M991.101 831.69C991.101 831.69 984.021 833.74 976.111 834.05C984.021 833.74 991.101 831.69 991.101 831.69Z" fill="#06BFAD"/>
<path d="M967.031 833.44C967.761 833.59 968.501 833.71 969.251 833.81C968.501 833.71 967.761 833.59 967.031 833.44Z" fill="#06BFAD"/>
<path d="M976.101 834.05C974.211 834.12 972.281 834.1 970.381 833.92C972.291 834.1 974.221 834.13 976.101 834.05Z" fill="#06BFAD"/>
<path d="M960.83 571.2L965.15 608.38C953.72 612.8 925.86 617.53 904.87 571.62C898.25 557.14 896.55 546.72 897.77 539.23C917.87 544.61 934.02 551.53 934.02 551.53L960.83 571.2Z" fill="#2D185D"/>
<path d="M860.07 419.46C861.34 419.46 880.36 376.35 880.36 376.35C896.63 387.76 918.72 379.84 918.72 379.84C918.72 379.84 1007.59 542.46 947.99 567.82C888.39 593.18 832.18 562.32 832.18 562.32C832.18 562.32 819.5 529.35 819.5 528.08C819.5 526.81 858.81 419.46 860.07 419.46Z" fill="#D1EAF2"/>
<path d="M975.882 236.87C975.882 236.87 979.732 314.02 972.502 328.17C948.512 375.09 918.722 379.84 918.722 379.84C918.722 379.84 908.472 543.94 916.922 583.25C916.922 583.25 945.032 591.92 986.452 572.47C986.452 572.47 954.752 445.25 956.442 429.19C956.442 429.19 1007.16 383.96 1008.85 330.71C1010.54 277.45 996.592 230.12 996.592 230.12L975.882 236.87Z" fill="#9ED16F"/>
<path d="M839.151 577.32C839.151 577.32 842.321 516.24 856.271 458.34C870.221 400.44 880.361 376.34 880.361 376.34C861.661 355.74 864.761 337.11 866.411 312.94C868.311 285.04 895.571 229.25 895.571 229.25L877.181 217.2C789.061 323.08 837.871 407.4 837.871 407.4C837.871 407.4 804.901 524.06 800.461 559.56C800.481 559.57 818.021 569.71 839.151 577.32Z" fill="#9ED16F"/>
<path d="M955.58 429C954.52 428.25 953.26 427.1 952.04 425.63C948.3 421.12 946.37 416.04 945.03 410.37C945.84 412.79 948.01 419.83 952.57 425.19C954.62 427.52 955.7 428.32 956.69 428.95C956.53 429.1 956.44 429.18 956.44 429.18C956.43 429.29 956.42 429.4 956.41 429.51C955.24 429.75 953.18 429.83 949.71 427.94C947.56 426.81 945.85 425.41 944.08 423.9C945.24 424.73 947.65 426.47 949.92 427.54C951.5 428.31 953.82 429.12 955.58 429Z" fill="#96A65F"/>
<path d="M838.562 407.02C840.072 406.06 841.382 404.69 842.592 403.31C846.332 398.92 848.382 393.73 850.132 388.49C848.802 394.14 846.872 399.22 843.122 403.75C841.902 405.21 840.662 406.35 839.582 407.12C840.412 407.18 841.402 407.02 842.062 406.83C843.152 406.56 844.222 406.15 845.242 405.65C847.362 404.66 849.452 403.17 851.082 402.01C849.502 403.35 847.702 404.87 845.442 406.05C844.422 406.61 843.342 407.07 842.202 407.41C841.052 407.7 839.892 407.95 838.592 407.59L837.922 407.41L838.562 407.02Z" fill="#96A65F"/>
<path d="M874.161 299.77L872.381 320.62L875.671 322.69L881.761 297.3L874.161 299.77Z" fill="#5E2E0D"/>
<path d="M878.592 318.47C879.502 323.19 877.172 327.61 873.392 328.33C869.612 329.06 865.812 325.81 864.912 321.09C864.002 316.37 866.332 311.95 870.112 311.23C873.892 310.5 877.692 313.74 878.592 318.47Z" fill="#D19369"/>
<path d="M873.191 337.74C872.221 331.7 872.361 325.53 872.901 320.23C873.021 319.09 873.061 317.95 873.091 316.81C873.201 312.19 874.161 307.47 876.181 302.81C882.681 287.84 898.551 278.75 914.751 280.76C936.571 283.47 950.951 304 946.751 324.99C949.291 324.18 951.911 324.4 953.961 325.86C957.901 328.66 958.261 334.92 954.761 339.85C951.261 344.78 945.231 346.5 941.291 343.7C940.741 343.31 940.271 342.85 939.861 342.34C934.471 359.83 917.071 370.69 899.581 366.89C886.311 364 875.351 352.99 873.191 337.74Z" fill="#EFAC7F"/>
<path d="M913.53 321.07C912.67 323.23 914.23 325.55 916.59 325.54C917.88 325.54 919.07 324.72 919.54 323.52C920.4 321.36 918.84 319.03 916.47 319.04C915.19 319.05 914.01 319.87 913.53 321.07Z" fill="#333333"/>
<path d="M885.892 316.93C885.032 319.09 886.592 321.42 888.962 321.4C890.252 321.39 891.441 320.57 891.911 319.37C892.771 317.21 891.212 314.89 888.842 314.9C887.562 314.91 886.372 315.73 885.892 316.93Z" fill="#333333"/>
<path d="M909.23 343.78C907.52 344.64 905.59 345.27 904.01 345.57C902.21 345.92 900.371 346.03 898.581 345.78C896.781 345.54 895.05 344.91 893.47 344C891.9 343.07 890.5 341.85 889.23 340.49C890.52 342.31 891.691 343.37 893.211 344.42C894.781 345.45 896.45 346.11 898.49 346.42C900.38 346.67 902.3 346.53 904.12 346.05C905.94 345.58 907.7 344.84 909.23 343.78Z" fill="#D19369"/>
<path d="M910.91 314.48C912.6 314.18 914.2 313.99 915.76 313.96C917.32 313.93 918.83 314.1 920.27 314.5C921.7 314.91 923.12 315.44 924.42 316.3C926.19 317.31 927.47 318.55 928.4 319.15C927.81 317.65 926.86 315.87 925.55 314.83C924.29 313.57 922.62 312.7 920.87 312.22C919.11 311.74 917.25 311.73 915.52 312.13C913.81 312.55 912.17 313.29 910.91 314.48Z" fill="#5E2E0D"/>
<path d="M898.001 312.35C897.181 310.82 895.871 309.59 894.381 308.64C892.881 307.71 891.101 307.12 889.291 307.01C887.481 306.91 885.621 307.19 884.031 307.98C882.461 308.55 880.981 309.94 879.951 311.16C881.111 310.86 882.571 310.13 884.631 309.73C886.141 309.34 887.651 309.28 889.141 309.35C890.631 309.44 892.121 309.76 893.591 310.29C895.041 310.83 896.491 311.52 898.001 312.35Z" fill="#5E2E0D"/>
<path d="M903.621 316.44C902.101 317.87 900.701 319.42 899.391 321.03C898.071 322.64 896.841 324.33 895.751 326.14C895.131 327.22 894.341 328.67 894.161 329.9C894.051 330.58 894.111 331.24 895.251 332.36C896.001 333.15 896.841 333.8 897.701 334.39C898.571 334.97 899.471 335.51 900.421 335.95C898.841 334.6 897.251 333.25 896.001 331.7C895.801 331.46 895.421 330.9 895.291 330.59C895.221 330.36 895.341 329.86 895.511 329.43C895.851 328.54 896.341 327.64 896.861 326.78C897.891 325.03 899.061 323.33 900.201 321.61C901.341 319.92 902.511 318.21 903.621 316.44Z" fill="#D19369"/>
<path d="M878.04 277.51C878.04 277.51 867.09 275.4 880.58 268.79C894.07 262.18 927.14 258.33 944.43 273.14C944.43 273.14 950.24 265.68 955.47 268.96C960.7 272.24 950.03 275.86 950.03 275.86C950.03 275.86 957.33 277.27 958.74 281.32C959.78 284.32 955.32 283.43 952.92 282.76C956.89 284.39 968.56 295.42 953.4 325.52C950.72 324.26 933.38 299.53 933.38 299.53C933.38 299.53 898.52 310.98 904.87 301.48C904.87 301.48 864.24 311.7 874.09 293.28C874.09 293.28 859.11 291.02 878.04 277.51Z" fill="#5E2E0D"/>
<path d="M953.401 325.51C953.401 325.51 950.771 323.5 946.751 324.99C942.731 326.48 940.181 335.5 940.181 335.5C940.181 335.5 927.021 346.27 933.441 299.32C939.741 253.19 948.471 307 948.471 307L953.401 325.51Z" fill="#5E2E0D"/>
<path d="M972.591 181.14L912.441 176.85C909.401 176.63 907.101 173.99 907.321 170.95C907.541 167.91 910.181 165.61 913.221 165.83L973.371 170.11C976.411 170.33 978.701 172.97 978.491 176.01C978.281 179.06 975.641 181.35 972.591 181.14Z" fill="#3797DB"/>
<path d="M955.27 0L976.29 51.53L1030.66 63.42L988.14 99.34L993.63 154.72L946.34 125.39L895.36 147.72L908.64 93.68L871.65 52.1L927.16 48.03L955.27 0Z" fill="#3797DB"/>
<path d="M955.271 0L949.881 75.61L976.291 51.53L955.271 0Z" fill="#3B77BE"/>
<path d="M1030.66 63.42L949.881 75.61L988.141 99.34L1030.66 63.42Z" fill="#3B77BE"/>
<path d="M949.88 75.61L927.16 48.03L871.65 52.1L949.88 75.61Z" fill="#3B77BE"/>
<path d="M895.359 147.72L949.879 75.61L908.639 93.68L895.359 147.72Z" fill="#3B77BE"/>
<path d="M993.63 154.72L949.88 75.61L946.34 125.39L993.63 154.72Z" fill="#3B77BE"/>
<path d="M988.153 183.448L896.762 176.933L894.472 209.053L985.863 215.567L988.153 183.448Z" fill="#7772D6"/>
<path d="M894.698 205.484L894.447 208.995L985.838 215.51L986.088 211.998L894.698 205.484Z" fill="#CDD6E0"/>
<path d="M896.801 175.978L896.551 179.489L987.942 186.003L988.192 182.492L896.801 175.978Z" fill="#CDD6E0"/>
<path d="M987.33 184.94L897.31 178.53C895.03 178.37 893.31 176.39 893.48 174.11C893.64 171.83 895.62 170.11 897.9 170.28L987.92 176.69C990.2 176.85 991.92 178.83 991.75 181.11C991.59 183.39 989.61 185.1 987.33 184.94Z" fill="#3B77BE"/>
<path d="M987.02 223.08L890.97 216.24C890.36 216.2 889.9 215.66 889.94 215.05L890.37 209.02C890.41 208.41 890.95 207.95 891.56 207.99L987.61 214.83C988.22 214.87 988.69 215.41 988.64 216.02L988.21 222.05C988.17 222.66 987.63 223.12 987.02 223.08Z" fill="#7772D6"/>
<path d="M957.751 205.01L923.001 202.54C918.681 202.23 915.431 198.48 915.741 194.16C916.051 189.84 919.801 186.59 924.121 186.9L958.871 189.38C963.191 189.69 966.441 193.44 966.131 197.76C965.821 202.07 962.071 205.32 957.751 205.01Z" fill="#3797DB"/>
<path d="M923.18 199.93C920.09 199.71 917.82 196.84 918.43 193.7C918.94 191.07 921.48 189.33 924.15 189.52L958.46 191.96C961.13 192.15 963.4 194.23 963.53 196.91C963.69 200.1 961.03 202.62 957.94 202.4L923.18 199.93Z" fill="#D9D9D9"/>
<path d="M952.73 172L933.4 170.62L933.53 168.83C934.05 161.54 934.86 146.4 946.34 125.39C955.06 149.42 953.38 162.92 952.86 170.21L952.73 172Z" fill="#3797DB"/>
</svg>
